<svg width="32" height="32" viewBox="0 0 32 32" fill="none" xmlns="http://www.w3.org/2000/svg">
<path d="M26.6665 5.33337H5.33317C3.8665 5.33337 2.67984 6.53337 2.67984 8.00004L2.6665 24C2.6665 25.4667 3.8665 26.6667 5.33317 26.6667H26.6665C28.1332 26.6667 29.3332 25.4667 29.3332 24V8.00004C29.3332 6.53337 28.1332 5.33337 26.6665 5.33337ZM26.1332 11L16.7065 16.8934C16.2798 17.16 15.7198 17.16 15.2932 16.8934L5.8665 11C5.73281 10.925 5.61573 10.8236 5.52236 10.702C5.42898 10.5804 5.36125 10.4411 5.32327 10.2925C5.28529 10.144 5.27784 9.98929 5.30138 9.83778C5.32492 9.68628 5.37895 9.54113 5.46021 9.41111C5.54147 9.28109 5.64827 9.16891 5.77414 9.08137C5.90001 8.99382 6.04233 8.93272 6.1925 8.90177C6.34266 8.87082 6.49755 8.87066 6.64778 8.9013C6.79801 8.93195 6.94046 8.99275 7.0665 9.08004L15.9998 14.6667L24.9332 9.08004C25.0592 8.99275 25.2017 8.93195 25.3519 8.9013C25.5021 8.87066 25.657 8.87082 25.8072 8.90177C25.9573 8.93272 26.0997 8.99382 26.2255 9.08137C26.3514 9.16891 26.4582 9.28109 26.5395 9.41111C26.6207 9.54113 26.6748 9.68628 26.6983 9.83778C26.7218 9.98929 26.7144 10.144 26.6764 10.2925C26.6384 10.4411 26.5707 10.5804 26.4773 10.702C26.3839 10.8236 26.2669 10.925 26.1332 11Z" fill="#2C2C2C"/>
</svg>
