<svg width="16" height="19" viewBox="0 0 16 19" fill="none" xmlns="http://www.w3.org/2000/svg">
<path fill-rule="evenodd" clip-rule="evenodd" d="M5.35338 17.7307C3.82561 17.266 2.22609 17.0316 0.674448 16.8169C0.340248 16.7718 0.0299669 17.0231 0.00609547 17.377C-0.0416473 17.7312 0.197206 18.0552 0.507534 18.1002C2.01143 18.3069 3.56293 18.5282 5.01909 18.9755C5.32941 19.0725 5.66375 18.8728 5.75924 18.5292C5.85472 18.1858 5.66371 17.828 5.35338 17.7307Z" fill="#FFA297"/>
<path fill-rule="evenodd" clip-rule="evenodd" d="M9.98422 11.1425C7.52547 8.42288 4.75639 6.05336 2.34538 3.2608C2.13054 3 1.74859 2.98602 1.50988 3.2295C1.27117 3.47323 1.24739 3.88307 1.4861 4.14387C3.89711 6.94445 6.66619 9.32173 9.12494 12.0493C9.36366 12.3039 9.74551 12.3076 9.98422 12.0571C10.1991 11.8069 10.2229 11.3971 9.98422 11.1425Z" fill="#FFA297"/>
<path fill-rule="evenodd" clip-rule="evenodd" d="M14.5917 0.68197C14.6633 2.23854 14.7348 3.7951 14.8064 5.35193C14.8064 5.70847 15.093 5.98376 15.4272 5.96643C15.7614 5.94883 16 5.64534 16 5.28854C15.9284 3.72938 15.8569 2.17049 15.7853 0.611593C15.7614 0.255053 15.4749 -0.0184333 15.1407 0.000972033C14.8304 0.0203774 14.5678 0.325689 14.5917 0.68197Z" fill="#FFA297"/>
</svg>
