<svg width="48" height="48" viewBox="0 0 48 48" fill="none" xmlns="http://www.w3.org/2000/svg">
<path d="M12.75 22.75C12.75 18.0363 12.75 15.6787 14.215 14.215C15.68 12.7512 18.0363 12.75 22.75 12.75H25.25C29.9637 12.75 32.3212 12.75 33.785 14.215C35.2487 15.68 35.25 18.0363 35.25 22.75V25.25C35.25 29.9637 35.25 32.3212 33.785 33.785C32.32 35.2487 29.9637 35.25 25.25 35.25H22.75C18.0363 35.25 15.6787 35.25 14.215 33.785C12.7512 32.32 12.75 29.9637 12.75 25.25V22.75Z" stroke="white" stroke-width="2.5"/>
<path d="M29.625 20.25C30.6605 20.25 31.5 19.4105 31.5 18.375C31.5 17.3395 30.6605 16.5 29.625 16.5C28.5895 16.5 27.75 17.3395 27.75 18.375C27.75 19.4105 28.5895 20.25 29.625 20.25Z" fill="white"/>
<path d="M24 27.75C26.0711 27.75 27.75 26.0711 27.75 24C27.75 21.9289 26.0711 20.25 24 20.25C21.9289 20.25 20.25 21.9289 20.25 24C20.25 26.0711 21.9289 27.75 24 27.75Z" stroke="white" stroke-width="2.5"/>
<circle cx="24" cy="24" r="22.5" stroke="white" stroke-width="3"/>
</svg>
