<svg width="338" height="453" viewBox="0 0 338 453" fill="none" xmlns="http://www.w3.org/2000/svg">
<path d="M12 453C12 437.899 12 354.723 12 142.821C12 70.5704 82.2913 12 169 12C255.709 12 326 70.5704 326 142.821V453" stroke="#FFDCF8" stroke-width="23"/>
<path d="M47.6506 453C47.6506 438.884 47.6506 361.132 47.6506 163.05C47.6506 95.5116 101.981 40.761 169 40.761C236.019 40.761 290.349 95.5116 290.349 163.05V453" stroke="#D2EAFE" stroke-width="23"/>
<path d="M83.3012 453C83.3012 440.033 83.3012 368.61 83.3012 186.65C83.3012 124.609 121.67 74.3152 169 74.3152C216.33 74.3152 254.699 124.609 254.699 186.65V453" stroke="#FFD7D2" stroke-width="23"/>
</svg>
