<svg width="22" height="22" viewBox="0 0 22 22" fill="none" xmlns="http://www.w3.org/2000/svg">
<path fill-rule="evenodd" clip-rule="evenodd" d="M8.71431 4.33551C8.65538 3.98587 8.61099 3.64019 8.58231 3.29448C8.5391 2.7759 8.56582 2.25337 8.55049 1.7348C8.54382 1.5148 8.51749 0.941233 8.5281 0.858733C8.62435 0.139805 9.2046 0.0297913 9.37431 0.0101484C9.45642 -0.00163728 10.2995 -0.0958809 10.4814 0.839119C10.7045 1.98233 10.776 3.13339 10.6971 4.26089C10.8813 5.21946 11.1964 6.17408 11.6124 7.03837C13.2679 10.4759 16.4226 10.8098 19.8404 10.7784C20.3661 10.7705 20.8025 11.183 20.83 11.7055C20.8575 12.2319 20.4663 12.6877 19.943 12.7348C18.0325 12.9194 14.6429 14.4516 13.471 16.0466C13.2259 16.3805 13.0833 17.1859 12.8947 17.9755C12.6315 19.0716 12.3184 20.1559 11.9676 20.6116C11.9149 20.6823 11.2749 21.4052 11.084 21.5113C10.6252 21.7627 10.2579 21.6173 10.0492 21.4837C9.84064 21.3502 9.60453 21.087 9.51024 20.6509C9.41163 20.1952 9.49492 19.2601 9.4796 19.0598C9.42381 18.333 9.27847 16.9069 8.98186 15.6812C8.82197 15.0212 8.65146 14.4123 8.36939 14.1098C7.32517 12.9902 5.65553 13.1552 4.2495 13.3398C4.08803 13.3595 3.92657 13.383 3.7655 13.4027C3.1931 13.5716 2.58534 13.6973 1.94302 13.7719C0.973053 13.8859 0.813564 12.9941 0.804921 12.9352C0.78685 12.8055 0.719664 12.1377 1.45077 11.8705C1.53052 11.843 2.11903 11.7134 2.34571 11.6623C2.66156 11.5916 2.98095 11.5366 3.30152 11.4855C6.61291 10.4563 8.41142 7.5648 8.71431 4.33551ZM9.85085 7.90662C11.1009 10.4916 12.998 11.7409 15.2467 12.3066H15.2464C13.8423 13.0412 12.5651 13.9605 11.8882 14.8838C11.6313 15.2334 11.3956 15.9366 11.183 16.7262C11.0679 15.9916 10.9124 15.2098 10.7069 14.5419C10.4731 13.7798 10.1584 13.1473 9.80723 12.7702C9.12916 12.0434 8.27823 11.6388 7.36327 11.4384C8.45855 10.468 9.28907 9.25804 9.85085 7.90662Z" fill="#FFA2ED"/>
</svg>
